<svg xmlns="http://www.w3.org/2000/svg" viewBox="0 0 800 500" role="img" aria-labelledby="title desc">
  <title id="title">Dashboard admin</title>
  <desc id="desc">Ilustrasi dashboard admin dengan grafik dan statistik.</desc>
  <rect width="800" height="500" fill="#f8fafc"/>
  <rect x="78" y="66" width="644" height="368" rx="20" fill="#ffffff"/>
  <rect x="78" y="66" width="150" height="368" rx="20" fill="#0f172a"/>
  <rect x="112" y="116" width="72" height="12" rx="6" fill="#60a5fa"/>
  <rect x="112" y="166" width="82" height="10" rx="5" fill="#cbd5e1"/>
  <rect x="112" y="204" width="68" height="10" rx="5" fill="#64748b"/>
  <rect x="112" y="242" width="92" height="10" rx="5" fill="#64748b"/>
  <rect x="260" y="108" width="130" height="82" rx="12" fill="#dbeafe"/>
  <rect x="418" y="108" width="130" height="82" rx="12" fill="#ccfbf1"/>
  <rect x="576" y="108" width="104" height="82" rx="12" fill="#e2e8f0"/>
  <rect x="260" y="228" width="420" height="154" rx="14" fill="#f1f5f9"/>
  <path d="M292 342 350 294l54 31 62-68 76 38 94-88" fill="none" stroke="#2563eb" stroke-width="12" stroke-linecap="round" stroke-linejoin="round"/>
  <circle cx="350" cy="294" r="10" fill="#14b8a6"/>
  <circle cx="466" cy="257" r="10" fill="#14b8a6"/>
  <circle cx="636" cy="207" r="10" fill="#14b8a6"/>
</svg>
