<svg xmlns="http://www.w3.org/2000/svg" viewBox="0 0 800 500" role="img" aria-labelledby="title desc">
  <title id="title">Desain konten digital</title>
  <desc id="desc">Ilustrasi desain konten digital untuk promosi online.</desc>
  <rect width="800" height="500" fill="#f8fafc"/>
  <rect x="86" y="74" width="628" height="352" rx="24" fill="#ffffff"/>
  <rect x="130" y="120" width="210" height="260" rx="18" fill="#2563eb"/>
  <circle cx="235" cy="210" r="58" fill="#93c5fd"/>
  <rect x="164" y="300" width="142" height="18" rx="9" fill="#ffffff"/>
  <rect x="178" y="332" width="114" height="12" rx="6" fill="#bfdbfe"/>
  <rect x="400" y="118" width="190" height="116" rx="18" fill="#ccfbf1"/>
  <rect x="428" y="150" width="100" height="16" rx="8" fill="#0f172a"/>
  <rect x="428" y="184" width="132" height="12" rx="6" fill="#64748b"/>
  <rect x="400" y="264" width="190" height="116" rx="18" fill="#e0e7ff"/>
  <circle cx="448" cy="322" r="30" fill="#14b8a6"/>
  <rect x="492" y="302" width="70" height="14" rx="7" fill="#0f172a"/>
  <rect x="492" y="332" width="52" height="12" rx="6" fill="#64748b"/>
  <path d="M630 146l32 32-32 32M654 290l32 32-32 32" fill="none" stroke="#2563eb" stroke-width="12" stroke-linecap="round" stroke-linejoin="round"/>
</svg>
