<svg xmlns="http://www.w3.org/2000/svg" viewBox="0 0 800 500" role="img" aria-labelledby="title desc">
  <title id="title">Toko online</title>
  <desc id="desc">Ilustrasi katalog toko online dengan beberapa produk.</desc>
  <rect width="800" height="500" fill="#eef2ff"/>
  <rect x="82" y="70" width="636" height="360" rx="22" fill="#ffffff"/>
  <rect x="120" y="110" width="220" height="24" rx="8" fill="#0f172a"/>
  <rect x="492" y="108" width="120" height="28" rx="14" fill="#dbeafe"/>
  <circle cx="652" cy="122" r="18" fill="#2563eb"/>
  <g>
    <rect x="120" y="172" width="160" height="184" rx="14" fill="#f8fafc"/>
    <rect x="320" y="172" width="160" height="184" rx="14" fill="#f8fafc"/>
    <rect x="520" y="172" width="160" height="184" rx="14" fill="#f8fafc"/>
    <rect x="146" y="198" width="108" height="82" rx="12" fill="#bfdbfe"/>
    <rect x="346" y="198" width="108" height="82" rx="12" fill="#ccfbf1"/>
    <rect x="546" y="198" width="108" height="82" rx="12" fill="#e0e7ff"/>
    <rect x="146" y="302" width="90" height="12" rx="6" fill="#334155"/>
    <rect x="346" y="302" width="90" height="12" rx="6" fill="#334155"/>
    <rect x="546" y="302" width="90" height="12" rx="6" fill="#334155"/>
    <rect x="146" y="326" width="70" height="20" rx="10" fill="#14b8a6"/>
    <rect x="346" y="326" width="70" height="20" rx="10" fill="#14b8a6"/>
    <rect x="546" y="326" width="70" height="20" rx="10" fill="#14b8a6"/>
  </g>
</svg>
