<svg xmlns="http://www.w3.org/2000/svg" viewBox="0 0 800 500" role="img" aria-labelledby="title desc">
  <title id="title">Website company profile</title>
  <desc id="desc">Ilustrasi tampilan website company profile modern.</desc>
  <rect width="800" height="500" fill="#eff6ff"/>
  <rect x="70" y="72" width="660" height="356" rx="18" fill="#ffffff"/>
  <rect x="70" y="72" width="660" height="58" rx="18" fill="#2563eb"/>
  <circle cx="112" cy="101" r="9" fill="#bfdbfe"/>
  <circle cx="140" cy="101" r="9" fill="#bfdbfe"/>
  <circle cx="168" cy="101" r="9" fill="#bfdbfe"/>
  <rect x="110" y="170" width="246" height="28" rx="8" fill="#0f172a"/>
  <rect x="110" y="216" width="280" height="14" rx="7" fill="#94a3b8"/>
  <rect x="110" y="246" width="230" height="14" rx="7" fill="#cbd5e1"/>
  <rect x="110" y="292" width="128" height="42" rx="8" fill="#14b8a6"/>
  <rect x="452" y="166" width="176" height="176" rx="24" fill="#dbeafe"/>
  <path d="M501 295h78c-5-34-27-53-39-53s-34 19-39 53Z" fill="#2563eb"/>
  <circle cx="540" cy="214" r="34" fill="#14b8a6"/>
</svg>
